<svg width="512" height="512" viewBox="0 0 512 512" xmlns="http://www.w3.org/2000/svg">
<path fill="#25D366" d="M256 0C114.8 0 0 114.8 0 256c0 45.1 11.8 89.2 34.3 128L0 512l132.4-34.5C170 500.3 212.5 512 256 512c141.2 0 256-114.8 256-256S397.2 0 256 0z"></path>
<path fill="#fff" d="M393.7 337.1c-6.2 17.4-30.7 31.7-50.4 35-13.4 2.2-30.9 4-89.9-19.3-75.5-29.8-124.5-103-128.4-107.7-3.6-4.7-30.6-40.8-30.6-77.7s19-55.1 26.6-62.8c6.2-6.3 16.4-9.1 26.6-9.1 3.2 0 6.1.2 8.7.3 7.6.3 11.4.8 16.5 12.8 6.2 14.9 21.2 51.8 23 55.5 1.9 3.9 3.8 9.1 1.1 13.8-2.4 4.4-4.5 6.4-8.3 10.3-3.8 3.9-7.3 6.8-11 11-3.5 4.1-7.5 8.5-3.1 16.2 4.4 7.7 19.6 32.3 42.1 52.2 29 25.6 52.4 33.9 60.1 37.3s13.3 3.1 18.1-1.9c5.7-6.3 12.8-16.6 20-26.7 5.1-7.3 11.6-8.2 18.4-5.6 6.8 2.6 43.1 20.3 50.5 24.1 7.3 3.8 12.2 5.6 14 8.8 1.8 3.3 1.8 19.3-4.3 36.7z"></path>
</svg>
